{"title":"Jugni (2016) 1080p x264 DTS 5.1 MSubs -DDR","uid":15711489,"size":9377687516,"categoryP":"video","categoryS":"hd___movies","magnet":"?xt=urn:btih:946893f14622fab245aabfe0cb2e637073d07fc1&amp;dn=Jugni+%282016%29+1080p+x264+DTS+5.1+MSubs+-DDR&amp;tr=udp%3A%2F%2Ftracker.leechers-paradise.org%3A6969&amp;tr=udp%3A%2F%2Fzer0day.ch%3A1337&amp;tr=udp%3A%2F%2Fopen.demonii.com%3A1337&amp;tr=udp%3A%2F%2Ftracker.coppersurfer.tk%3A6969&amp;tr=udp%3A%2F%2Fexodus.desync.com%3A6969","seeders":5,"leechers":5,"uploader":"SaM","files":4,"time":1472578771,"description":"** JUGNI **\r\n\r\n** 2016**\r\n** 1080p / x264 / DTS 5.1 **\r\n\r\n** English &amp; French Subtitle(s) **\r\n\r\n\r\n\r\n[ SCREENS ]\r\n \nhttp://extraimago.com/image/wqZH \nhttp://extraimago.com/image/wqZF \nhttp://extraimago.com/image/wqZD \nhttp://extraimago.com/image/wqZ5 \nhttp://extraimago.com/image/wqZg \nhttp://extraimago.com/image/wqZX \nhttp://extraimago.com/image/wqZP \nhttp://extraimago.com/image/wqZG \nhttp://extraimago.com/image/wqZr \nhttp://extraimago.com/image/wqZp \nhttp://extraimago.com/image/wqZY \nhttp://extraimago.com/image/wqZC \nhttp://extraimago.com/image/wqZB \nhttp://extraimago.com/image/wqZ4 \nhttp://extraimago.com/image/wqZe\r\n\r\n[ Info ]\r\n\r\nSource : DDR HDFury Netflix recording\r\n\r\nFile size : 8.65 GiB\r\nDuration : 1 h 47 min\r\nOverall bit rate : 11.5 Mb/s\r\n\r\nVideo\r\nFormat : AVC\r\nFormat/Info : Advanced Video Codec\r\nFormat profile :   \r\nFormat settings, CABAC : Yes\r\nFormat settings, ReFrames : 5 frames\r\nCodec ID : V_MPEG4/ISO/AVC\r\nDuration : 1 h 47 min\r\nBit rate : 10 000 kb/s\r\nWidth : 1 920 pixels\r\nHeight : 816 pixels\r\nDisplay aspect ratio : 2.35:1\r\nFrame rate mode : Constant\r\nFrame rate : 24.000 FPS\r\nColor space : YUV\r\nChroma subsampling : 4:2:0\r\nBit depth : 8 bits\r\nScan type : Progressive\r\nBits/(Pixel*Frame) : 0.266\r\nStream size : 7.51 GiB (87%)\r\n\r\nAudio\r\nFormat : DTS\r\nFormat/Info : Digital Theater Systems\r\nMode : 16\r\nFormat settings, Endianness : Big\r\nCodec ID : A_DTS\r\nDuration : 1 h 47 min\r\nBit rate mode : Constant\r\nBit rate : 1 509 kb/s\r\nChannel(s) : 6 channels\r\nChannel positions : Front: L C R, Side: L R, LFE\r\nSampling rate : 48.0 kHz\r\nFrame rate : 93.750 FPS (512 spf)\r\nBit depth : 24 bits\r\nCompression mode : Lossy\r\nDelay relative to video : 3 ms\r\nStream size : 1.13 GiB (13%)\r\nLanguage : Hindi\r\nDefault : Yes\r\nForced : No\r\n\r\n\r\n\r\nChapters = YES","torrent":{"xt":"urn:btih:946893f14622fab245aabfe0cb2e637073d07fc1","amp;dn":"Jugni+%282016%29+1080p+x264+DTS+5.1+MSubs+-DDR","amp;tr":["udp%3A%2F%2Ftracker.leechers-paradise.org%3A6969","udp%3A%2F%2Fzer0day.ch%3A1337","udp%3A%2F%2Fopen.demonii.com%3A1337","udp%3A%2F%2Ftracker.coppersurfer.tk%3A6969","udp%3A%2F%2Fexodus.desync.com%3A6969"],"infoHash":"946893f14622fab245aabfe0cb2e637073d07fc1","infoHashBuffer":{"type":"Buffer","data":[148,104,147,241,70,34,250,178,69,170,191,224,203,46,99,112,115,208,127,193]},"announce":[],"urlList":[]}}